<?xml version="1.0" encoding="utf-8"?>
<!-- Generator: Adobe Illustrator 16.0.0, SVG Export Plug-In . SVG Version: 6.00 Build 0)  -->
<!DOCTYPE svg PUBLIC "-//W3C//DTD SVG 1.1//EN" "http://www.w3.org/Graphics/SVG/1.1/DTD/svg11.dtd">
<svg version="1.1" id="Layer_1" xmlns="http://www.w3.org/2000/svg" xmlns:xlink="http://www.w3.org/1999/xlink" x="0px" y="0px"
	 width="129.996px" height="120.996px" viewBox="0 0 129.996 120.996" enable-background="new 0 0 129.996 120.996"
	 xml:space="preserve">
<path fill="#1B7EBA" d="M0,6h129.996v114.996l-65.319-10L0,120.996V6z"/>
<path fill="#2697DE" d="M0,0h129.996v118.996l-65.319-10L0,118.996V0z"/>
<g>
	<path fill="#FFFFFF" d="M68.324,49.156c-0.604,0-1.166,0.216-1.599,0.604c-0.474,0.389-0.69,0.993-0.69,1.813v12.481
		c0,0.821,0.217,1.426,0.69,1.814c0.433,0.389,0.994,0.562,1.599,0.562s1.166-0.173,1.598-0.562
		c0.476-0.389,0.691-0.993,0.691-1.814V51.574c0-0.82-0.216-1.425-0.691-1.813C69.49,49.372,68.928,49.156,68.324,49.156z"/>
	<path fill="#FFFFFF" d="M80.244,49.156h-1.555v17.275h1.555c0.95,0,1.641-0.216,2.029-0.691c0.389-0.475,0.604-1.252,0.604-2.246
		V52.093c0-0.95-0.216-1.641-0.561-2.159C81.927,49.415,81.236,49.156,80.244,49.156z"/>
	<path fill="#FFFFFF" d="M97.692,56.498l11.53-11.834L93.33,40.13l4.06-16.023l-16.022,4.06l-4.535-15.893L64.998,23.805
		L53.165,12.273L48.63,28.167l-16.023-4.06l4.06,16.023l-15.893,4.534l11.531,11.834L20.773,68.332l15.893,4.534l-4.06,16.022
		l16.023-4.06l4.535,15.894l11.833-11.531l11.834,11.531l4.535-15.894l16.022,4.06l-4.06-16.022l15.893-4.534L97.692,56.498z
		 M58.865,69.627h-3.196l-2.591-15.331h-0.043l-2.591,15.331h-3.196L43.75,45.96h3.584l1.685,15.029h0.086l2.634-15.029h2.591
		l2.764,15.418h0.086l1.598-15.418h3.628L58.865,69.627z M74.025,64.056c0,0.993-0.173,1.814-0.519,2.549
		c-0.346,0.69-0.777,1.295-1.296,1.771c-0.562,0.475-1.166,0.863-1.857,1.079c-0.646,0.26-1.338,0.389-2.029,0.389
		s-1.382-0.129-2.03-0.389c-0.69-0.216-1.296-0.604-1.857-1.079c-0.518-0.476-0.95-1.08-1.295-1.771
		c-0.346-0.734-0.519-1.556-0.519-2.549V51.574c0-0.95,0.173-1.813,0.519-2.548c0.345-0.734,0.777-1.339,1.295-1.813
		c0.561-0.476,1.167-0.821,1.857-1.08c0.648-0.259,1.339-0.346,2.03-0.346s1.383,0.087,2.029,0.346
		c0.691,0.259,1.296,0.604,1.857,1.08c0.519,0.475,0.95,1.079,1.296,1.813s0.519,1.598,0.519,2.548V64.056z M86.246,63.149
		c0,2.202-0.518,3.844-1.597,4.923c-1.08,1.037-2.636,1.555-4.665,1.555h-4.707V45.96h5.01c1.943,0,3.412,0.562,4.449,1.642
		c0.992,1.079,1.51,2.548,1.51,4.491V63.149z"/>
</g>
</svg>
